<svg width="512" height="512" viewBox="0 0 512 512" fill="none" xmlns="http://www.w3.org/2000/svg">
  <defs>
    <linearGradient id="bg" x1="56" y1="56" x2="456" y2="456" gradientUnits="userSpaceOnUse">
      <stop stop-color="#1E1B4B"/>
      <stop offset="1" stop-color="#0F172A"/>
    </linearGradient>
    <linearGradient id="chip" x1="302" y1="140" x2="380" y2="220" gradientUnits="userSpaceOnUse">
      <stop stop-color="#A78BFA"/>
      <stop offset="1" stop-color="#6366F1"/>
    </linearGradient>
  </defs>

  <rect x="40" y="40" width="432" height="432" rx="42" fill="url(#bg)"/>
  <path d="M150 108H308L376 176V372C376 390.778 360.778 406 342 406H150C131.222 406 116 390.778 116 372V142C116 123.222 131.222 108 150 108Z" fill="#111827" stroke="#6366F1" stroke-width="10"/>
  <path d="M308 108V158C308 167.941 316.059 176 326 176H376" fill="#111827"/>
  <path d="M308 108V158C308 167.941 316.059 176 326 176H376" stroke="#6366F1" stroke-width="10" stroke-linejoin="round"/>

  <rect x="150" y="214" width="192" height="14" rx="7" fill="#94A3B8"/>
  <rect x="150" y="248" width="166" height="14" rx="7" fill="#94A3B8"/>
  <rect x="150" y="282" width="138" height="14" rx="7" fill="#94A3B8"/>
  <rect x="150" y="316" width="172" height="14" rx="7" fill="#94A3B8"/>

  <circle cx="340" cy="176" r="38" fill="url(#chip)"/>
  <path d="M330 163L354 176L330 189V163Z" fill="white"/>

  <path d="M96 430C130 398 171 382 219 382" stroke="#6366F1" stroke-width="12" stroke-linecap="round" opacity="0.9"/>
</svg>
